<?xml version="1.0" encoding="UTF-8"?>
<svg width="249px" height="100px" viewBox="0 0 249 100" version="1.1" xmlns="http://www.w3.org/2000/svg" xmlns:xlink="http://www.w3.org/1999/xlink">
    <!-- Generator: Sketch 52.1 (67048) - http://www.bohemiancoding.com/sketch -->
    <title>Combined Shape Copy 2</title>
    <desc>Created with Sketch.</desc>
    <g id="Page-1" stroke="none" stroke-width="1" fill="none" fill-rule="evenodd">
        <g id="Desktop-HD" transform="translate(-201.000000, -264.000000)" fill="#FFFFFF">
            <path d="M261.244982,334.744064 C261.244982,344.000226 258.549622,351.190172 253.158821,356.314119 C247.768021,361.438065 240.422651,364 231.122491,364 C219.024053,364 208.983323,359.330667 201,349.991861 L211.370038,334.496133 C214.415223,337.636616 217.542663,340.053926 220.752453,341.748134 C223.962243,343.442342 226.88393,344.289433 229.517604,344.289433 C232.315882,344.289433 234.517436,343.421681 236.122331,341.686151 C237.727225,339.950621 238.529661,337.471329 238.529661,334.248201 L238.529661,315.308378 L208.900981,315.308378 L208.900981,296.589538 L261.244982,296.589538 L261.244982,334.744064 Z M247.573923,265.075269 C250.948317,265.075269 253.725978,266.170289 255.906989,268.360363 C258.088,270.550437 259.178489,273.380962 259.178489,276.852023 C259.178489,280.240439 258.088,283.050303 255.906989,285.281699 C253.725978,287.513095 250.948317,288.628776 247.573923,288.628776 C244.199528,288.628776 241.421867,287.513095 239.240856,285.281699 C237.059845,283.050303 235.969356,280.240439 235.969356,276.852023 C235.969356,273.380962 237.059845,270.550437 239.240856,268.360363 C241.421867,266.170289 244.199528,265.075269 247.573923,265.075269 Z M306.181812,295.94276 L328.77368,295.94276 L342.72385,342.553912 L356.797473,295.94276 L378.772077,295.94276 L353.711152,363.008273 L331.119284,363.008273 L306.181812,295.94276 Z M415.561021,295.198965 C426.424924,295.198965 434.778483,298.422044 440.621946,304.8683 C446.465409,311.314555 449.387097,320.157362 449.387097,331.396987 C449.387097,333.132517 449.345946,334.454806 449.263644,335.363894 L402.845379,335.363894 C403.915309,339.165531 405.767083,342.078699 408.400757,344.103485 C411.03443,346.12827 414.244172,347.140647 418.030078,347.140647 C420.910658,347.140647 423.688319,346.562146 426.363144,345.405126 C429.037968,344.248106 431.486425,342.553923 433.708587,340.322527 L445.189701,351.851349 C441.733004,355.735631 437.556225,358.69012 432.659238,360.714906 C427.762251,362.739691 422.227505,363.752068 416.054832,363.752068 C408.894532,363.752068 402.639651,362.347136 397.290002,359.53723 C391.940352,356.727324 387.845875,352.760457 385.006445,347.636511 C382.167016,342.512564 380.747323,336.562264 380.747323,329.785431 C380.747323,322.925955 382.187591,316.87235 385.068172,311.624437 C387.948752,306.376524 392.022655,302.327015 397.290002,299.475786 C402.557349,296.624558 408.647628,295.198965 415.561021,295.198965 Z M428.029757,323.58714 C428.029757,319.702858 426.898117,316.583082 424.634804,314.22772 C422.371491,311.872357 419.388077,310.694694 415.684474,310.694694 C412.227777,310.694694 409.326665,311.851697 406.981049,314.165737 C404.635434,316.479777 403.092289,319.620214 402.351568,323.58714 L428.029757,323.58714 Z M270.892473,295.182796 L298.849462,295.182796 L298.849462,362.924731 L276.405585,362.924731 L276.405585,314.471527 L270.892473,314.471527 L270.892473,295.182796 Z M288.096774,264 C291.536126,264 294.367258,265.099781 296.590254,267.299377 C298.81325,269.498973 299.924731,272.341805 299.924731,275.827957 C299.924731,279.231105 298.81325,282.053186 296.590254,284.294284 C294.367258,286.535382 291.536126,287.655914 288.096774,287.655914 C284.657422,287.655914 281.82629,286.535382 279.603294,284.294284 C277.380299,282.053186 276.268817,279.231105 276.268817,275.827957 C276.268817,272.341805 277.380299,269.498973 279.603294,267.299377 C281.82629,265.099781 284.657422,264 288.096774,264 Z" id="Combined-Shape-Copy-2"></path>
        </g>
    </g>
</svg>