<?xml version="1.0" encoding="UTF-8"?>
<svg width="106px" height="63px" viewBox="0 0 106 63" version="1.1" xmlns="http://www.w3.org/2000/svg" xmlns:xlink="http://www.w3.org/1999/xlink">
    <!-- Generator: Sketch 52 (66869) - http://www.bohemiancoding.com/sketch -->
    <title>Group 2</title>
    <desc>Created with Sketch.</desc>
    <defs>
        <linearGradient x1="0%" y1="0%" x2="101.999998%" y2="100.999999%" id="linearGradient-1">
            <stop stop-color="#FFCD2C" offset="0%"></stop>
            <stop stop-color="#FF0663" offset="100%"></stop>
        </linearGradient>
    </defs>
    <g id="Page-1" stroke="none" stroke-width="1" fill="none" fill-rule="evenodd">
        <g id="Desktop-HD-Copy-2" transform="translate(-304.000000, -22.000000)">
            <g id="Group-2" transform="translate(304.000000, 22.000000)">
                <path d="M25.5435589,29.4169674 C25.5435589,33.3252911 24.4007403,36.3611755 22.1150689,38.5247118 C19.8293975,40.6882481 16.7149988,41.77 12.7717794,41.77 C7.64210468,41.77 3.38488743,39.7984199 -7.67386155e-13,35.8552005 L4.39684211,29.3122807 C5.68798473,30.6383191 7.01400322,31.6590044 8.37493734,32.3743672 C9.73587147,33.08973 10.9746519,33.447406 12.0913158,33.447406 C13.2777712,33.447406 14.2112184,33.0810062 14.8916855,32.3481955 C15.5721525,31.6153848 15.912381,30.5685281 15.912381,29.207594 L15.912381,21.2104391 L3.34997494,21.2104391 L3.34997494,13.306592 L25.5435589,13.306592 L25.5435589,29.4169674 Z M19.7471009,-3.90798505e-14 C21.1778265,-3.90798505e-14 22.3555403,0.462361709 23.2802776,1.387099 C24.2050149,2.31183629 24.6673766,3.50699768 24.6673766,4.97261905 C24.6673766,6.40334466 24.2050149,7.58978226 23.2802776,8.53196742 C22.3555403,9.47415258 21.1778265,9.9452381 19.7471009,9.9452381 C18.3163753,9.9452381 17.1386615,9.47415258 16.2139242,8.53196742 C15.2891869,7.58978226 14.8268252,6.40334466 14.8268252,4.97261905 C14.8268252,3.50699768 15.2891869,2.31183629 16.2139242,1.387099 C17.1386615,0.462361709 18.3163753,-3.90798505e-14 19.7471009,-3.90798505e-14 Z M44.5965414,13.0334962 L54.1753759,13.0334962 L60.0901754,32.714599 L66.0573183,13.0334962 L75.3744361,13.0334962 L64.7487343,41.3512531 L55.1698997,41.3512531 L44.5965414,13.0334962 Z M90.9727569,12.7194361 C95.5789955,12.7194361 99.1208606,14.0803498 101.598459,16.802218 C104.076057,19.5240863 105.314837,23.2578752 105.314837,28.0036967 C105.314837,28.7365074 105.297389,29.294831 105.262494,29.6786842 L85.581391,29.6786842 C86.0350357,31.2838886 86.8201782,32.5139452 87.9368421,33.368891 C89.053506,34.2238368 90.4144197,34.6513033 92.0196241,34.6513033 C93.2409752,34.6513033 94.418689,34.4070367 95.5528008,33.9184962 C96.6869125,33.4299558 97.7250454,32.7146037 98.6672306,31.7724185 L103.535163,36.6403509 C102.069542,38.280451 100.298609,39.5279552 98.222312,40.382901 C96.1460151,41.2378468 93.7993113,41.6653133 91.1821303,41.6653133 C88.1462004,41.6653133 85.4941634,41.0720945 83.2259398,39.8856391 C80.9577163,38.6991837 79.221679,37.024213 78.0177757,34.8606767 C76.8138724,32.6971404 76.2119298,30.1846843 76.2119298,27.3232331 C76.2119298,24.4268861 76.8225962,21.870811 78.0439474,19.6549311 C79.2652985,17.4390512 80.9926121,15.7291852 83.2259398,14.525282 C85.4592676,13.3213787 88.0415142,12.7194361 90.9727569,12.7194361 Z M96.2594361,24.7060652 C96.2594361,23.0659651 95.7796268,21.7486704 94.8199937,20.7541416 C93.8603607,19.7596128 92.5954089,19.2623559 91.0251003,19.2623559 C89.5594789,19.2623559 88.3294223,19.750889 87.3348935,20.7279699 C86.3403647,21.7050508 85.6860793,23.0310693 85.3720175,24.7060652 L96.2594361,24.7060652 Z M29.7583371,13.0334962 L41.2989098,13.0334962 L41.2989098,41.3512531 L32.0341353,41.3512531 L32.0341353,21.0966492 L29.7583371,21.0966492 L29.7583371,13.0334962 Z M36.5880075,-8.8817842e-15 C38.0187331,-8.8817842e-15 39.1964469,0.462361709 40.1211842,1.387099 C41.0459215,2.31183629 41.5082832,3.50699768 41.5082832,4.97261905 C41.5082832,6.40334466 41.0459215,7.58978226 40.1211842,8.53196742 C39.1964469,9.47415258 38.0187331,9.9452381 36.5880075,9.9452381 C35.1572819,9.9452381 33.9795681,9.47415258 33.0548308,8.53196742 C32.1300935,7.58978226 31.6677318,6.40334466 31.6677318,4.97261905 C31.6677318,3.50699768 32.1300935,2.31183629 33.0548308,1.387099 C33.9795681,0.462361709 35.1572819,-8.8817842e-15 36.5880075,-8.8817842e-15 Z" id="Combined-Shape" fill="url(#linearGradient-1)"></path>
                <text id="…Go-live" font-family="SFProDisplay-Regular, SF Pro Display" font-size="15" font-weight="normal" fill="#FFFFFF">
                    <tspan x="51.612793" y="62">…Go live</tspan>
                </text>
            </g>
        </g>
    </g>
</svg>